<svg width="62" height="62" viewBox="0 0 62 62" fill="none" xmlns="http://www.w3.org/2000/svg">
<path d="M38.75 14.0469H15.5C14.6008 14.0469 13.7383 14.4041 13.1025 15.04C12.4666 15.6758 12.1094 16.5383 12.1094 17.4375V54.25C12.112 54.5167 12.1879 54.7775 12.3289 55.0039C12.4698 55.2303 12.6704 55.4136 12.9086 55.5336C13.1423 55.6615 13.4076 55.7203 13.6734 55.7032C13.9393 55.686 14.1948 55.5936 14.4102 55.4367L27.125 46.3547L39.8398 55.4367C40.0897 55.6076 40.3848 55.7004 40.6875 55.7031C40.9168 55.7072 41.1429 55.6486 41.3414 55.5336C41.5796 55.4136 41.7802 55.2303 41.9211 55.0039C42.0621 54.7775 42.138 54.5167 42.1406 54.25V17.4375C42.1406 16.5383 41.7834 15.6758 41.1475 15.04C40.5117 14.4041 39.6492 14.0469 38.75 14.0469ZM39.2344 51.4164L27.9727 43.3758C27.721 43.2087 27.4271 43.1163 27.125 43.1094C26.8223 43.1121 26.5272 43.2049 26.2773 43.3758L15.0156 51.4164V17.4375C15.0156 17.309 15.0667 17.1858 15.1575 17.095C15.2483 17.0042 15.3715 16.9531 15.5 16.9531H38.75C38.8785 16.9531 39.0017 17.0042 39.0925 17.095C39.1833 17.1858 39.2344 17.309 39.2344 17.4375V51.4164ZM49.8906 9.6875V46.5C49.8906 46.8854 49.7375 47.255 49.465 47.5275C49.1925 47.8 48.8229 47.9531 48.4375 47.9531C48.0521 47.9531 47.6825 47.8 47.41 47.5275C47.1375 47.255 46.9844 46.8854 46.9844 46.5V9.6875C46.9844 9.55904 46.9333 9.43583 46.8425 9.34499C46.7517 9.25416 46.6285 9.20312 46.5 9.20312H21.3125C20.9271 9.20312 20.5575 9.05003 20.285 8.77751C20.0125 8.505 19.8594 8.13539 19.8594 7.75C19.8594 7.36461 20.0125 6.995 20.285 6.72249C20.5575 6.44997 20.9271 6.29688 21.3125 6.29688H46.5C47.3992 6.29688 48.2617 6.6541 48.8975 7.28997C49.5334 7.92583 49.8906 8.78825 49.8906 9.6875Z" fill="black"/>
</svg>
