<svg width="62" height="62" viewBox="0 0 62 62" fill="none" xmlns="http://www.w3.org/2000/svg">
<path d="M56.0905 31C56.2843 30.8062 56.3811 30.6125 56.5749 30.4187C60.353 24.9937 61.128 20.0531 58.803 16.3719C56.6718 12.9812 52.0218 11.0437 45.8218 11.0437C44.7561 11.0437 43.5936 11.1406 42.4311 11.2375C39.6218 5.52188 35.553 1.9375 30.9999 1.9375C26.4468 1.9375 22.378 5.52188 19.5686 11.2375C18.4061 11.1406 17.2436 11.0437 16.178 11.0437C9.97801 11.0437 5.32801 12.8844 3.19676 16.3719C0.871756 20.0531 1.64676 25.0906 5.42488 30.4187C5.61863 30.6125 5.81238 30.8062 5.90926 31C5.71551 31.1938 5.61863 31.3875 5.42488 31.5812C1.74363 37.0062 0.968631 42.0438 3.29363 45.725C5.42488 49.1156 10.0749 51.0531 16.2749 51.0531C17.3405 51.0531 18.503 50.9563 19.6655 50.8594C22.378 56.4781 26.4468 60.0625 30.9999 60.0625C35.553 60.0625 39.6218 56.4781 42.4311 50.7625C43.5936 50.8594 44.7561 50.9562 45.8218 50.9562C52.0218 50.9562 56.6718 49.1156 58.803 45.6281C61.128 41.9469 60.353 36.9094 56.5749 31.5812C56.3811 31.3875 56.1874 31.1938 56.0905 31ZM45.7249 12.6906C51.2468 12.6906 55.3155 14.2406 57.1561 17.1469C59.0936 20.2469 58.3186 24.6062 54.928 29.45L54.8311 29.5469C52.4093 26.6406 49.2124 23.7344 45.4343 21.2156C44.853 18.1156 44.078 15.3062 43.0124 12.7875C43.9811 12.6906 44.9499 12.6906 45.7249 12.6906ZM38.5561 43.0125C36.0374 44.3688 33.5186 45.4344 30.9999 46.4031C28.4811 45.4344 25.8655 44.3688 23.4436 43.0125C21.603 42.0438 19.8593 40.9781 18.1155 39.8156C17.6311 37.0062 17.3405 34.0031 17.3405 30.9031C17.3405 27.8031 17.6311 24.8 18.1155 21.9906C19.7624 20.8281 21.5061 19.8594 23.4436 18.7937C25.9624 17.4375 28.4811 16.3719 30.9999 15.4031C33.5186 16.3719 36.1343 17.4375 38.5561 18.7937C40.3968 19.7625 42.1405 20.8281 43.8843 21.9906C44.3686 24.8 44.6593 27.8031 44.6593 30.9031C44.6593 34.0031 44.3686 37.0062 43.8843 39.8156C42.2374 40.9781 40.3968 42.0438 38.5561 43.0125ZM43.3999 42.2375C42.8186 44.6594 42.1405 46.9844 41.1718 49.0187C38.653 48.7281 36.1343 48.1469 33.5186 47.275C35.553 46.5 37.4905 45.5312 39.428 44.5625C40.8811 43.7875 42.1405 43.0125 43.3999 42.2375V42.2375ZM28.4811 47.275C25.8655 48.05 23.2499 48.6312 20.828 49.0187C19.9561 46.9844 19.1811 44.7562 18.5999 42.2375C19.8593 43.0125 21.1186 43.7875 22.4749 44.4656C24.5093 45.5313 26.4468 46.4031 28.4811 47.275V47.275ZM16.0811 38.4594C12.9811 36.1344 10.2686 33.6156 8.23426 31C10.2686 28.3844 12.9811 25.8656 16.0811 23.5406C15.7905 25.8656 15.5968 28.3844 15.5968 31C15.5968 33.6156 15.6936 36.0375 16.0811 38.4594ZM18.5999 19.7625C19.1811 17.3406 19.8593 15.0156 20.828 12.9812C23.3468 13.2719 25.8655 13.8531 28.4811 14.725C26.4468 15.5 24.5093 16.4688 22.5718 17.5344C21.1186 18.2125 19.8593 18.9875 18.5999 19.7625V19.7625ZM33.5186 14.725C36.1343 13.95 38.7499 13.3687 41.1718 12.9812C42.0436 15.0156 42.8186 17.2437 43.3999 19.7625C42.1405 18.9875 40.8811 18.2125 39.5249 17.5344C37.4905 16.4688 35.553 15.5969 33.5186 14.725V14.725ZM45.9186 23.5406C49.0186 25.8656 51.7311 28.3844 53.7655 31C51.7311 33.6156 49.0186 36.1344 45.9186 38.4594C46.2093 36.1344 46.403 33.6156 46.403 31C46.403 28.3844 46.3061 25.9625 45.9186 23.5406ZM30.9999 3.77813C34.6811 3.77813 37.9749 6.68438 40.4936 11.4313C37.4905 11.9156 34.2936 12.6906 30.9999 13.8531C27.803 12.6906 24.6061 11.9156 21.5061 11.4313C24.0249 6.68438 27.3186 3.77813 30.9999 3.77813V3.77813ZM6.97488 29.45C3.58426 24.6062 2.80926 20.2469 4.74676 17.1469C6.58738 14.2406 10.6561 12.6906 16.178 12.6906C17.0499 12.6906 17.9218 12.6906 18.7936 12.7875C17.728 15.3062 16.953 18.1156 16.3718 21.2156C12.6905 23.7344 9.49363 26.6406 6.97488 29.45V29.45ZM16.2749 49.3094C10.753 49.3094 6.68426 47.7594 4.84363 44.8531C2.90613 41.7531 3.68113 37.3937 7.07176 32.55C7.07176 32.55 7.07176 32.4531 7.16863 32.4531C9.59051 35.3594 12.7874 38.2656 16.5655 40.7844C17.1468 43.8844 17.9218 46.6937 18.9874 49.2125C18.0186 49.3094 17.1468 49.3094 16.2749 49.3094V49.3094ZM30.9999 58.2219C27.3186 58.2219 24.0249 55.3156 21.5061 50.5688C24.5093 50.0844 27.7061 49.3094 30.9999 48.1469C34.1968 49.3094 37.3936 50.0844 40.4936 50.5688C37.9749 55.3156 34.6811 58.2219 30.9999 58.2219V58.2219ZM57.1561 44.8531C55.3155 47.7594 51.2468 49.3094 45.7249 49.3094C44.853 49.3094 43.9811 49.3094 43.1093 49.2125C44.1749 46.6937 44.9499 43.8844 45.5311 40.7844C49.2124 38.2656 52.4093 35.3594 54.928 32.4531C54.928 32.4531 54.928 32.55 55.0249 32.55C58.4155 37.3937 59.1905 41.7531 57.1561 44.8531" fill="#0071BC"/>
<path d="M31.0002 36.425C33.9963 36.425 36.4252 33.9962 36.4252 31C36.4252 28.0039 33.9963 25.575 31.0002 25.575C28.0041 25.575 25.5752 28.0039 25.5752 31C25.5752 33.9962 28.0041 36.425 31.0002 36.425Z" fill="#ED4C5C"/>
</svg>
