<svg width="62" height="62" viewBox="0 0 62 62" fill="none" xmlns="http://www.w3.org/2000/svg">
<path d="M55.2672 14.4828L47.5172 6.73281C47.3839 6.59437 47.224 6.48424 47.0472 6.40902C46.8703 6.3338 46.6801 6.29503 46.4879 6.29503C46.2957 6.29503 46.1055 6.3338 45.9286 6.40902C45.7518 6.48424 45.5919 6.59437 45.4586 6.73281L22.2086 29.9828C22.0763 30.1169 21.9719 30.2757 21.9012 30.4503C21.8305 30.6249 21.7951 30.8117 21.7969 31V38.75C21.7969 39.1354 21.95 39.505 22.2225 39.7775C22.495 40.05 22.8646 40.2031 23.25 40.2031H31C31.1907 40.2061 31.3798 40.1687 31.5551 40.0936C31.7304 40.0185 31.8878 39.9073 32.0172 39.7672L55.2672 16.5172C55.4049 16.386 55.5146 16.2282 55.5895 16.0533C55.6645 15.8785 55.7031 15.6902 55.7031 15.5C55.7031 15.3098 55.6645 15.1215 55.5895 14.9467C55.5146 14.7718 55.4049 14.614 55.2672 14.4828V14.4828ZM30.3945 37.2969H24.7031V31.6055L40.6875 15.6211L46.3789 21.3125L30.3945 37.2969ZM48.4375 19.2539L42.7461 13.5625L46.5 9.8086L52.1914 15.5L48.4375 19.2539ZM53.7656 29.0625V50.375C53.7656 51.2743 53.4084 52.1367 52.7725 52.7725C52.1367 53.4084 51.2742 53.7656 50.375 53.7656H11.625C10.7258 53.7656 9.86333 53.4084 9.22747 52.7725C8.5916 52.1367 8.23438 51.2743 8.23438 50.375V11.625C8.23438 10.7258 8.5916 9.86333 9.22747 9.22747C9.86333 8.5916 10.7258 8.23438 11.625 8.23438H32.9375C33.3229 8.23438 33.6925 8.38747 33.965 8.65999C34.2375 8.9325 34.3906 9.30211 34.3906 9.6875C34.3906 10.0729 34.2375 10.4425 33.965 10.715C33.6925 10.9875 33.3229 11.1406 32.9375 11.1406H11.625C11.4965 11.1406 11.3733 11.1917 11.2825 11.2825C11.1917 11.3733 11.1406 11.4965 11.1406 11.625V50.375C11.1406 50.5035 11.1917 50.6267 11.2825 50.7175C11.3733 50.8083 11.4965 50.8594 11.625 50.8594H50.375C50.5035 50.8594 50.6267 50.8083 50.7175 50.7175C50.8083 50.6267 50.8594 50.5035 50.8594 50.375V29.0625C50.8594 28.6771 51.0125 28.3075 51.285 28.035C51.5575 27.7625 51.9271 27.6094 52.3125 27.6094C52.6979 27.6094 53.0675 27.7625 53.34 28.035C53.6125 28.3075 53.7656 28.6771 53.7656 29.0625Z" fill="black"/>
</svg>
