<svg width="55" height="55" viewBox="0 0 55 55" fill="none" xmlns="http://www.w3.org/2000/svg">
<path d="M48.889 19.9832V40.8068L37.6446 29.5623L35.4904 31.7165L46.5362 42.7776H8.64733L19.3418 31.7165L17.1418 29.5929L6.11122 41.0054V14.5443L25.1015 33.4429C25.674 34.012 26.4484 34.3314 27.2557 34.3314C28.0629 34.3314 28.8373 34.012 29.4098 33.4429L42.9001 20.029C41.8235 19.748 40.794 19.3105 39.8446 18.7304L27.2251 31.2734L8.11261 12.2221H34.8487C34.5533 11.2297 34.394 10.2018 34.3751 9.1665H6.11122C5.30084 9.1665 4.52364 9.48843 3.95062 10.0615C3.37759 10.6345 3.05566 11.4117 3.05566 12.2221V42.7776C3.05566 43.588 3.37759 44.3652 3.95062 44.9382C4.52364 45.5112 5.30084 45.8332 6.11122 45.8332H48.889C49.6994 45.8332 50.4766 45.5112 51.0496 44.9382C51.6226 44.3652 51.9446 43.588 51.9446 42.7776V18.6387C50.9976 19.2346 49.9681 19.6876 48.889 19.9832Z" fill="white"/>
<path d="M45.8332 16.5917C50.0521 16.5917 53.4721 13.1717 53.4721 8.95285C53.4721 4.73401 50.0521 1.31396 45.8332 1.31396C41.6144 1.31396 38.1943 4.73401 38.1943 8.95285C38.1943 13.1717 41.6144 16.5917 45.8332 16.5917Z" fill="white"/>
</svg>
