<svg width="62" height="62" viewBox="0 0 62 62" fill="none" xmlns="http://www.w3.org/2000/svg">
<path d="M57.3075 30.5762L33.9122 7.19297L32.344 5.6248C31.9867 5.26986 31.5035 5.07065 30.9999 5.07065C30.4962 5.07065 30.013 5.26986 29.6557 5.6248L4.69224 30.5762C4.32612 30.9409 4.03677 31.3752 3.84127 31.8536C3.64577 32.3319 3.54808 32.8446 3.55396 33.3613C3.57818 35.4926 5.3522 37.1939 7.48345 37.1939H10.0567V56.9141H51.943V37.1939H54.5708C55.6061 37.1939 56.5809 36.7883 57.3135 36.0557C57.6743 35.6961 57.9601 35.2685 58.1544 34.7977C58.3488 34.3269 58.4478 33.8222 58.4458 33.3129C58.4458 32.2836 58.0401 31.3088 57.3075 30.5762V30.5762ZM34.3905 52.5547H27.6092V40.2031H34.3905V52.5547ZM47.5837 32.8346V52.5547H38.2655V38.75C38.2655 37.4119 37.1817 36.3281 35.8436 36.3281H26.1561C24.818 36.3281 23.7342 37.4119 23.7342 38.75V52.5547H14.4161V32.8346H8.60357L31.0059 10.4504L32.4045 11.849L53.4022 32.8346H47.5837Z" fill="black"/>
</svg>
