<svg width="62" height="62" viewBox="0 0 62 62" fill="none" xmlns="http://www.w3.org/2000/svg">
<path d="M55.9896 47.9294C54.3288 46.4489 52.8749 44.7517 51.6668 42.8833C50.348 40.3044 49.5575 37.488 49.3418 34.5994V26.0917C49.3532 21.5547 47.7075 17.1697 44.7138 13.7605C41.7201 10.3514 37.5845 8.15276 33.084 7.57778V5.35611C33.084 4.74634 32.8418 4.16153 32.4106 3.73036C31.9795 3.29918 31.3947 3.05695 30.7849 3.05695C30.1751 3.05695 29.5903 3.29918 29.1591 3.73036C28.7279 4.16153 28.4857 4.74634 28.4857 5.35611V7.61222C24.0256 8.22865 19.94 10.4406 16.9856 13.8382C14.0312 17.2359 12.4083 21.5892 12.4174 26.0917V34.5994C12.2017 37.488 11.4112 40.3044 10.0924 42.8833C8.90556 44.7474 7.47493 46.4444 5.83849 47.9294C5.65478 48.0908 5.50755 48.2895 5.40658 48.5122C5.30562 48.7349 5.25324 48.9766 5.25293 49.2211V51.5633C5.25293 52.0201 5.43438 52.4581 5.75736 52.7811C6.08034 53.1041 6.51839 53.2856 6.97515 53.2856H54.8529C55.3097 53.2856 55.7477 53.1041 56.0707 52.7811C56.3937 52.4581 56.5752 52.0201 56.5752 51.5633V49.2211C56.5748 48.9766 56.5225 48.7349 56.4215 48.5122C56.3205 48.2895 56.1733 48.0908 55.9896 47.9294ZM8.83515 49.8411C10.4375 48.2932 11.8483 46.5586 13.0374 44.6744C14.6987 41.5598 15.668 38.1232 15.879 34.5994V26.0917C15.8107 24.0733 16.1493 22.0618 16.8746 20.177C17.5998 18.2922 18.697 16.5726 20.1006 15.1206C21.5043 13.6686 23.1858 12.514 25.045 11.7254C26.9042 10.9368 28.9031 10.5304 30.9227 10.5304C32.9422 10.5304 34.9411 10.9368 36.8003 11.7254C38.6595 12.514 40.341 13.6686 41.7447 15.1206C43.1483 16.5726 44.2455 18.2922 44.9707 20.177C45.696 22.0618 46.0346 24.0733 45.9663 26.0917V34.5994C46.1774 38.1232 47.1467 41.5598 48.8079 44.6744C49.997 46.5586 51.4078 48.2932 53.0102 49.8411H8.83515Z" fill="black"/>
<path d="M31.0003 59.0378C32.0852 59.0128 33.1263 58.6049 33.9395 57.8863C34.7526 57.1677 35.2854 56.1847 35.4437 55.1111H26.3848C26.5475 56.2139 27.1052 57.22 27.9542 57.9423C28.8033 58.6646 29.8857 59.0539 31.0003 59.0378V59.0378Z" fill="black"/>
</svg>
